<?xml version="1.0" encoding="utf-8"?>
<!-- Generator: Adobe Illustrator 15.1.0, SVG Export Plug-In . SVG Version: 6.00 Build 0)  -->
<!DOCTYPE svg PUBLIC "-//W3C//DTD SVG 1.1//EN" "http://www.w3.org/Graphics/SVG/1.1/DTD/svg11.dtd">
<svg version="1.1" id="Layer_1" xmlns="http://www.w3.org/2000/svg" xmlns:xlink="http://www.w3.org/1999/xlink" x="0px" y="0px"
	 width="500px" height="500px" viewBox="0 0 500 500" enable-background="new 0 0 500 500" xml:space="preserve">
<path fill="#DE4D36" d="M489.664,227.3L271.763,9.412c-12.542-12.549-32.895-12.549-45.452,0L181.062,54.66l57.401,57.399
	c13.338-4.508,28.634-1.484,39.267,9.149c10.684,10.701,13.685,26.127,9.069,39.509l55.317,55.319
	c13.384-4.611,28.825-1.628,39.515,9.079c14.938,14.934,14.938,39.136,0,54.08c-14.943,14.944-39.146,14.944-54.097,0
	c-11.237-11.249-14.014-27.752-8.325-41.596l-51.588-51.587l-0.006,135.759c3.74,1.849,7.156,4.292,10.114,7.231
	c14.939,14.936,14.939,39.141,0,54.095c-14.944,14.937-39.158,14.937-54.079,0c-14.939-14.954-14.939-39.159,0-54.091
	c3.579-3.582,7.833-6.42,12.518-8.347V183.636c-4.69-1.915-8.947-4.753-12.518-8.345c-11.32-11.304-14.041-27.911-8.241-41.81
	l-56.583-56.589L9.416,226.293c-12.555,12.559-12.555,32.915,0,45.465l217.905,217.894c12.545,12.551,32.894,12.551,45.456,0
	l216.885-216.882c12.552-12.555,12.552-32.921,0-45.471"/>
</svg>
