<?xml version="1.0" encoding="utf-8"?>
<!-- Generator: Adobe Illustrator 15.1.0, SVG Export Plug-In . SVG Version: 6.00 Build 0)  -->
<!DOCTYPE svg PUBLIC "-//W3C//DTD SVG 1.1//EN" "http://www.w3.org/Graphics/SVG/1.1/DTD/svg11.dtd">
<svg version="1.1" id="Layer_1" xmlns="http://www.w3.org/2000/svg" xmlns:xlink="http://www.w3.org/1999/xlink" x="0px" y="0px"
	 width="459.09px" height="248.864px" viewBox="0 0 459.09 248.864" enable-background="new 0 0 459.09 248.864"
	 xml:space="preserve">
<g transform="translate(-216.55 -392.14)">
	<g transform="matrix(.125 0 0 -.12969 200.7 1162.5)">
		<g>
			<defs>
				<path id="SVGID_1_" d="M2849.421,5722.617c-436.484-0.403-808.313-101.752-808.313-101.752
					c-40.43-11.001-106.555-11.001-146.977,0c0,0-371.828,101.35-808.301,101.752c-443.938,0.425-808.918-101.414-808.918-101.414
					c-40.297-11.261-73.266-46.016-73.266-77.272V4130.411c0-31.25,33.109-47.891,73.582-36.957
					c0,0,387.613,104.561,808.609,102.016c411.449-2.485,804.207-46.942,804.207-46.942c42.672-4.834,112.492-4.834,155.156,0
					c0,0,392.75,44.457,804.234,46.942c420.945,2.545,808.578-102.016,808.578-102.016c40.484-10.934,73.594,5.708,73.594,36.957
					V5543.93c0,31.257-32.969,66.012-73.273,77.272c0,0-364.984,101.839-808.898,101.414"/>
			</defs>
			<clipPath id="SVGID_2_">
				<use xlink:href="#SVGID_1_"  overflow="visible"/>
			</clipPath>
			<g clip-path="url(#SVGID_2_)">
				<path fill="#25274D" d="M2849.421,5722.617c-436.484-0.403-808.313-101.752-808.313-101.752
					c-40.43-11.001-106.555-11.001-146.977,0c0,0-371.828,101.35-808.301,101.752c-443.938,0.425-808.918-101.414-808.918-101.414
					c-40.297-11.261-73.266-46.016-73.266-77.272V4130.411c0-31.25,33.109-47.891,73.582-36.957
					c0,0-821.109-525.728,808.609,102.016c1937.723-996.923-211.008-46.686,1763.559,0
					c420.945,2.545,808.578-102.016,808.578-102.016c40.484-10.934,73.578,5.708,73.578,36.957V5543.93
					c0,31.257-32.953,66.012-73.266,77.272c0,0-364.977,101.839-808.891,101.414"/>
			</g>
		</g>
	</g>
	<g transform="matrix(.125 0 0 -.125 200.7 1135.4)">
		<g>
			<defs>
				<path id="SVGID_3_" d="M1968.07,4164.568c0,0-429.82,111.203-822.172,113.578c-392.34,2.359-822.168-113.578-822.168-113.578
					v1423.227c0,0,408.43,113.988,822.168,113.594c413.742-0.395,822.172-113.594,822.172-113.594V4164.568"/>
			</defs>
			<clipPath id="SVGID_4_">
				<use xlink:href="#SVGID_3_"  overflow="visible"/>
			</clipPath>
			<g clip-path="url(#SVGID_4_)">
				<path fill="#E6E6E5" d="M1968.07,4164.568c0,0-429.82,111.203-822.172,113.578c-392.34,2.359-822.168-113.578-822.168-113.578
					v1423.227c0,0,408.43,113.988,822.168,113.594c413.742-0.395,822.172-113.594,822.172-113.594V4164.568"/>
			</g>
		</g>
	</g>
	<g transform="matrix(.125 0 0 -.125 200.7 1135.4)">
		<g>
			<defs>
				<path id="SVGID_5_" d="M1968.07,4164.568c0,0-407.465,197.641-780,200.016c-372.5,2.391-780.625-113.594-780.625-113.594
					v1423.23c0,0,387.797,113.977,780.625,113.594c392.844-0.395,780-200.051,780-200.051V4164.537"/>
			</defs>
			<clipPath id="SVGID_6_">
				<use xlink:href="#SVGID_5_"  overflow="visible"/>
			</clipPath>
			<g clip-path="url(#SVGID_6_)">
				<path fill="#AAABB8" d="M1968.07,4164.568c0,0-407.465,197.641-780,200.016c-372.5,2.391-780.625-113.594-780.625-113.594
					v1423.23c0,0,387.797,113.977,780.625,113.594c392.844-0.395,780-200.051,780-200.051V4164.537"/>
			</g>
		</g>
	</g>
	<g transform="matrix(.125 0 0 -.125 200.7 1135.4)">
		<g>
			<defs>
				<path id="SVGID_7_" d="M1968.07,4164.568c0,0-249.578,305.016-622.098,307.422c-372.516,2.344-780.609-113.609-780.609-113.609
					v1423.223c0,0,387.797,113.969,780.609,113.574c392.832-0.383,622.098-307.414,622.098-307.414V4164.537"/>
			</defs>
			<clipPath id="SVGID_8_">
				<use xlink:href="#SVGID_7_"  overflow="visible"/>
			</clipPath>
			<g clip-path="url(#SVGID_8_)">
				<path fill="#E6E6E5" stroke="#25274D" stroke-width="16" d="M1968.07,4164.568c0,0-249.578,305.016-622.098,307.422
					c-372.516,2.344-780.609-113.609-780.609-113.609v1423.223c0,0,387.797,113.969,780.609,113.574
					c392.832-0.383,622.098-307.414,622.098-307.414V4164.537"/>
			</g>
		</g>
	</g>
	<g transform="matrix(.125 0 0 -.125 200.7 1135.4)">
		<g>
			<defs>
				<path id="SVGID_9_" d="M1967.366,4164.568c0,0,429.836,111.203,822.164,113.578c392.352,2.359,822.195-113.578,822.195-113.578
					v1423.227c0,0-408.445,113.988-822.195,113.594c-413.734-0.395-822.164-113.594-822.164-113.594V4164.568"/>
			</defs>
			<clipPath id="SVGID_10_">
				<use xlink:href="#SVGID_9_"  overflow="visible"/>
			</clipPath>
			<g clip-path="url(#SVGID_10_)">
				<path fill="#FFFFFF" d="M1967.366,4164.568c0,0,429.836,111.203,822.164,113.578c392.352,2.359,822.195-113.578,822.195-113.578
					v1423.227c0,0-408.445,113.988-822.195,113.594c-413.734-0.395-822.164-113.594-822.164-113.594V4164.568"/>
			</g>
		</g>
	</g>
	<g transform="matrix(.125 0 0 -.125 200.7 1135.4)">
		<g>
			<defs>
				<path id="SVGID_11_" d="M1967.366,4164.568c0,0,407.477,197.641,779.984,200.016c372.516,2.391,780.641-113.594,780.641-113.594
					v1423.23c0,0-387.813,113.977-780.641,113.594c-392.82-0.395-779.984-200.051-779.984-200.051V4164.537"/>
			</defs>
			<clipPath id="SVGID_12_">
				<use xlink:href="#SVGID_11_"  overflow="visible"/>
			</clipPath>
			<g clip-path="url(#SVGID_12_)">
				<path fill="#FFFFFF" stroke="#25274D" stroke-width="8" d="M1967.366,4164.568c0,0,407.477,197.641,779.984,200.016
					c372.516,2.391,780.641-113.594,780.641-113.594v1423.23c0,0-387.813,113.977-780.641,113.594
					c-392.82-0.395-779.984-200.051-779.984-200.051V4164.537"/>
			</g>
		</g>
	</g>
	<path fill="#B4B4B4" d="M446.604,616.352c0,0,27.428-28.346,73.743-31.295c46.385-2.955,98.881,8.111,98.881,8.111l2.717-87.488
		l-175.335,24.23v86.443"/>
	<g transform="matrix(.125 0 0 -.125 200.7 1135.4)">
		<g>
			<defs>
				<path id="SVGID_13_" d="M1967.366,4164.568c0,0,249.586,305.016,622.109,307.422c372.523,2.344,780.609-113.609,780.609-113.609
					v1423.223c0,0-387.781,113.969-780.609,113.574c-392.836-0.383-622.109-307.414-622.109-307.414V4164.537"/>
			</defs>
			<clipPath id="SVGID_14_">
				<use xlink:href="#SVGID_13_"  overflow="visible"/>
			</clipPath>
			<g clip-path="url(#SVGID_14_)">
				<path fill="#FFFFFF" stroke="#25274D" stroke-width="16" d="M1967.366,4164.568c0,0,249.586,305.016,622.109,307.422
					c372.523,2.344,780.609-113.609,780.609-113.609v1423.223c0,0-387.781,113.969-780.609,113.574
					c-392.836-0.383-622.109-307.414-622.109-307.414V4164.537"/>
			</g>
		</g>
	</g>
</g>
</svg>
