<?xml version="1.0" encoding="utf-8"?>
<!-- Generator: Adobe Illustrator 15.1.0, SVG Export Plug-In . SVG Version: 6.00 Build 0)  -->
<!DOCTYPE svg PUBLIC "-//W3C//DTD SVG 1.1//EN" "http://www.w3.org/Graphics/SVG/1.1/DTD/svg11.dtd">
<svg version="1.1" id="Layer_1" xmlns="http://www.w3.org/2000/svg" xmlns:xlink="http://www.w3.org/1999/xlink" x="0px" y="0px"
	 width="500px" height="500px" viewBox="0 0 500 500" enable-background="new 0 0 500 500" xml:space="preserve">
<path fill="#CF659B" d="M430.313,279.171c-17.478,0.098-32.611,4.296-45.305,10.545c-4.687-9.274-9.374-17.381-10.153-23.433
	c-0.879-7.031-1.953-11.327-0.879-19.724c1.073-8.397,5.955-20.31,5.955-21.286c-0.098-0.879-1.072-5.174-11.132-5.272
	c-10.057-0.098-18.747,1.953-19.721,4.588c-0.977,2.636-2.929,8.69-4.2,14.939c-1.756,9.178-20.114,41.693-30.56,58.779
	c-3.419-6.64-6.348-12.498-6.934-17.185c-0.878-7.029-1.953-11.327-0.878-19.724c1.074-8.396,5.956-20.309,5.956-21.285
	c-0.098-0.879-1.074-5.175-11.132-5.272c-10.057-0.098-18.746,1.952-19.723,4.588c-0.977,2.637-2.051,8.886-4.199,14.939
	c-2.05,6.055-26.459,60.343-32.807,74.499c-3.222,7.227-6.053,12.987-8.104,16.893s-0.098,0.292-0.293,0.683
	c-1.757,3.32-2.734,5.175-2.734,5.175v0.098c-1.367,2.441-2.832,4.784-3.515,4.784c-0.488,0-1.465-6.542,0.195-15.523
	c3.612-18.846,12.4-48.235,12.303-49.309c0-0.488,1.66-5.663-5.663-8.299c-7.128-2.637-9.667,1.758-10.252,1.758
	c-0.586,0-1.074,1.562-1.074,1.562s7.909-33.101-15.134-33.101c-14.45,0-34.369,15.721-44.23,30.074
	c-6.249,3.417-19.528,10.642-33.587,18.355c-5.37,2.929-10.936,6.054-16.208,8.886l-1.074-1.172
	c-27.925-29.779-79.577-50.87-77.429-90.902c0.781-14.549,5.859-52.921,99.202-99.398c76.452-38.079,137.672-27.631,148.314-4.393
	c15.134,33.197-32.708,94.905-112.187,103.791c-30.268,3.417-46.184-8.3-50.187-12.693c-4.198-4.589-4.784-4.784-6.347-3.906
	c-2.538,1.368-0.976,5.468,0,7.909c2.344,6.151,12.108,17.087,28.707,22.555c14.548,4.784,50.089,7.42,93.05-9.178
	c48.138-18.649,85.727-70.398,74.695-113.652c-11.23-44.036-84.264-58.486-153.295-33.979
	c-41.106,14.646-85.629,37.494-117.655,67.469c-38.08,35.541-44.132,66.59-41.595,79.479c8.885,45.988,72.253,75.964,97.64,98.128
	c-1.269,0.683-2.441,1.366-3.515,1.953c-12.693,6.248-61.025,31.536-73.132,58.289c-13.67,30.269,2.148,52.044,12.693,54.973
	c32.612,9.08,66.005-7.226,84.068-34.076c17.965-26.851,15.817-61.708,7.519-77.624l-0.293-0.586l9.959-5.857
	c6.445-3.809,12.792-7.322,18.356-10.351c-3.124,8.496-5.37,18.551-6.541,33.197c-1.367,17.186,5.663,39.446,14.939,48.234
	c4.101,3.808,8.982,3.906,12.01,3.906c10.74,0,15.622-8.887,20.992-19.528c6.64-12.986,12.499-28.022,12.499-28.022
	s-7.324,40.715,12.693,40.715c7.323,0,14.646-9.471,17.965-14.353v0.097c0,0,0.195-0.292,0.586-0.976
	c0.781-1.171,1.172-1.854,1.172-1.854v-0.195c2.929-5.078,9.471-16.696,19.236-35.932c12.594-24.801,24.701-55.85,24.701-55.85
	s1.173,7.615,4.786,20.113c2.146,7.421,6.832,15.524,10.445,23.433c-2.93,4.101-4.688,6.445-4.688,6.445l0.099,0.097
	c-2.343,3.125-4.979,6.445-7.712,9.765c-9.96,11.912-21.872,25.484-23.434,29.39c-1.854,4.589-1.464,8.006,2.147,10.741
	c2.636,1.951,7.322,2.343,12.302,1.951c8.984-0.585,15.232-2.83,18.355-4.198c4.883-1.756,10.448-4.394,15.818-8.299
	c9.764-7.225,15.721-17.478,15.133-31.146c-0.293-7.52-2.733-14.939-5.76-21.969c0.878-1.269,1.758-2.539,2.637-3.906
	c15.428-22.555,27.339-47.355,27.339-47.355s1.172,7.615,4.784,20.115c1.855,6.346,5.566,13.278,8.886,20.112
	c-14.451,11.814-23.531,25.483-26.655,34.467c-5.761,16.599-1.27,24.117,7.226,25.875c3.808,0.78,9.275-0.977,13.376-2.733
	c5.078-1.661,11.229-4.492,16.892-8.69c9.764-7.226,19.138-17.282,18.649-30.854c-0.294-6.249-1.952-12.4-4.2-18.259
	c12.306-5.077,28.219-8.007,48.431-5.565c43.45,5.077,52.042,32.221,50.382,43.548c-1.66,11.325-10.74,17.574-13.767,19.526
	c-3.027,1.855-4.004,2.539-3.711,3.906c0.392,2.052,1.758,1.952,4.396,1.563c3.61-0.586,22.846-9.276,23.626-30.17
	c1.173-26.851-24.311-56.143-69.517-55.851H430.313z M95.213,392.14c-14.352,15.721-34.564,21.676-43.156,16.599
	c-9.275-5.369-5.663-28.511,12.01-45.207c10.74-10.155,24.703-19.527,33.881-25.289c2.05-1.269,5.175-3.123,8.885-5.37
	c0.585-0.39,0.976-0.585,0.976-0.585c0.684-0.392,1.465-0.879,2.246-1.367C116.597,354.744,110.348,375.64,95.213,392.14
	L95.213,392.14z M200.176,320.765c-4.98,12.206-15.524,43.548-21.871,41.791c-5.468-1.465-8.788-25.191-1.074-48.624
	c3.906-11.815,12.205-25.875,17.087-31.344c7.909-8.788,16.5-11.717,18.649-8.104C215.506,279.171,203.301,313.15,200.176,320.765z
	 M286.783,362.164c-2.147,1.075-4.1,1.856-4.98,1.271c-0.684-0.392,0.881-1.856,0.881-1.856s10.836-11.619,15.133-16.988
	c2.44-3.124,5.37-6.736,8.494-10.838v1.172C306.311,348.983,292.837,358.356,286.783,362.164z M353.567,346.934
	c-1.562-1.172-1.367-4.785,3.906-16.111c2.05-4.491,6.738-12.01,14.842-19.137c0.978,2.93,1.563,5.761,1.464,8.396
	C373.682,337.657,361.184,344.2,353.567,346.934z"/>
</svg>
