<?xml version="1.0" encoding="utf-8"?>
<!-- Generator: Adobe Illustrator 15.1.0, SVG Export Plug-In . SVG Version: 6.00 Build 0)  -->
<!DOCTYPE svg PUBLIC "-//W3C//DTD SVG 1.1//EN" "http://www.w3.org/Graphics/SVG/1.1/DTD/svg11.dtd">
<svg version="1.1" id="Layer_1" xmlns="http://www.w3.org/2000/svg" xmlns:xlink="http://www.w3.org/1999/xlink" x="0px" y="0px"
	 width="500px" height="500px" viewBox="0 0 500 500" enable-background="new 0 0 500 500" xml:space="preserve">
<polygon fill="#1673B6" points="70.067,449.066 30.029,0 469.971,0 429.894,448.994 249.73,498.941 "/>
<polygon fill="#35A9DB" points="253.635,459.707 399.212,419.348 433.463,35.661 253.635,35.661 "/>
<g>
	<polygon fill="#FFFFFF" points="253.634,198.355 326.514,198.355 331.546,141.957 253.634,141.957 253.634,86.878 253.824,86.878 
		391.739,86.878 390.419,101.656 376.882,253.43 253.634,253.43 	"/>
	<polygon fill="#EBEBEB" points="253.963,341.391 253.723,341.459 192.383,324.895 188.462,280.971 158.657,280.971 
		133.175,280.971 140.891,367.445 253.709,398.766 253.963,398.695 	"/>
	<polygon fill="#FFFFFF" points="321.833,251.098 315.2,324.857 253.772,341.438 253.772,398.738 366.682,367.445 367.51,358.143 
		377.09,251.098 	"/>
	<polygon fill="#EBEBEB" points="253.824,86.878 253.824,121.085 253.824,141.82 253.824,141.957 120.965,141.957 120.965,141.957 
		120.789,141.957 119.685,129.577 117.175,101.656 115.857,86.878 	"/>
	<polygon fill="#EBEBEB" points="253.634,198.361 253.634,232.57 253.634,253.303 253.634,253.438 193.247,253.438 193.247,253.438 
		193.071,253.438 191.967,241.06 189.457,213.139 188.14,198.361 	"/>
</g>
</svg>
