<?xml version="1.0" encoding="utf-8"?>
<!-- Generator: Adobe Illustrator 15.1.0, SVG Export Plug-In . SVG Version: 6.00 Build 0)  -->
<!DOCTYPE svg PUBLIC "-//W3C//DTD SVG 1.1//EN" "http://www.w3.org/Graphics/SVG/1.1/DTD/svg11.dtd">
<svg version="1.1" id="Layer_1" xmlns="http://www.w3.org/2000/svg" xmlns:xlink="http://www.w3.org/1999/xlink" x="0px" y="0px"
	 width="500px" height="500px" viewBox="0 0 500 500" enable-background="new 0 0 500 500" xml:space="preserve">
<g id="Page-1">
	<g id="Artboard">
		<g id="Group-2" transform="translate(91.000000, 9.000000)">
			<path id="Combined-Shape" fill="#1C764D" d="M210.237,36.846V-9L-88.547,36.846v404.959l298.784,48.707v-69.516h176.941
				c10.948,0,19.821-8.874,19.821-19.822V56.668c0-10.947-8.873-19.822-19.821-19.822H210.237z"/>
			<polygon id="Rectangle-2-Copy" fill="#FFFFFF" points="208.781,54.43 387.179,54.43 387.179,399.331 208.781,399.331 			"/>
			<rect id="Rectangle-3" x="284.104" y="86.145" fill="#1C764D" width="75.323" height="35.68"/>
			<rect id="Rectangle-3-Copy" x="284.104" y="149.575" fill="#1C764D" width="75.323" height="35.679"/>
			<rect id="Rectangle-3-Copy-2" x="284.104" y="209.041" fill="#1C764D" width="75.323" height="35.68"/>
			<rect id="Rectangle-3-Copy-3" x="284.104" y="276.436" fill="#1C764D" width="75.323" height="35.679"/>
			<rect id="Rectangle-3-Copy-4" x="284.104" y="335.901" fill="#1C764D" width="75.323" height="35.679"/>
			<rect id="Rectangle-3-Copy-5" x="181.031" y="335.901" fill="#1C764D" width="75.323" height="35.679"/>
			<rect id="Rectangle-3-Copy-6" x="181.031" y="272.471" fill="#1C764D" width="75.323" height="35.68"/>
			<rect id="Rectangle-3-Copy-7" x="181.031" y="209.041" fill="#1C764D" width="75.323" height="35.68"/>
			<rect id="Rectangle-3-Copy-8" x="181.031" y="149.575" fill="#1C764D" width="75.323" height="35.679"/>
			<rect id="Rectangle-3-Copy-9" x="181.031" y="86.145" fill="#1C764D" width="75.323" height="35.68"/>
			<polygon id="X" fill="#FFFFFF" points="-9.629,149.575 32.477,239.734 -13.224,319.672 27.341,319.672 53.528,270.129 
				79.974,331.937 121.565,331.937 75.865,239.734 118.483,149.575 78.176,149.575 54.813,208.574 31.192,149.575 			"/>
		</g>
	</g>
</g>
</svg>
