<?xml version="1.0" encoding="utf-8"?>
<!-- Generator: Adobe Illustrator 15.1.0, SVG Export Plug-In . SVG Version: 6.00 Build 0)  -->
<!DOCTYPE svg PUBLIC "-//W3C//DTD SVG 1.1//EN" "http://www.w3.org/Graphics/SVG/1.1/DTD/svg11.dtd">
<svg version="1.1" id="Layer_1" xmlns="http://www.w3.org/2000/svg" xmlns:xlink="http://www.w3.org/1999/xlink" x="0px" y="0px"
	 width="600px" height="600px" viewBox="0 0 600 600" enable-background="new 0 0 600 600" xml:space="preserve">
<g>
	<path fill="#563D7C" d="M0,522.636C0,565.367,34.637,600,77.364,600h445.271C565.367,600,600,565.363,600,522.636V77.364
		C600,34.632,565.363,0,522.636,0H77.364C34.632,0,0,34.637,0,77.364V522.636z"/>
	<path fill="#FFFFFF" d="M248.807,265.402v-84.969H323.6c7.124,0,13.992,0.594,20.606,1.781s12.466,3.307,17.554,6.36
		s9.158,7.293,12.211,12.72s4.579,12.38,4.579,20.86c0,15.264-4.579,26.288-13.737,33.072c-9.158,6.784-20.86,10.176-35.107,10.176
		H248.807L248.807,265.402z M168.926,118.359v363.281H344.97c16.281,0,32.139-2.035,47.572-6.105s29.171-10.346,41.213-18.825
		c12.041-8.48,21.624-19.42,28.747-32.817c7.123-13.398,10.685-29.256,10.685-47.573c0-22.726-5.512-42.146-16.536-58.257
		c-11.023-16.112-27.729-27.391-50.116-33.835c16.281-7.802,28.577-17.808,36.888-30.02c8.311-12.211,12.466-27.475,12.466-45.792
		c0-16.96-2.799-31.206-8.396-42.739c-5.597-11.533-13.483-20.776-23.659-27.729s-22.387-11.957-36.634-15.01
		c-14.246-3.053-30.019-4.579-47.317-4.579H168.926L168.926,118.359z M248.807,419.567v-99.724h87.005
		c17.299,0,31.206,3.984,41.721,11.956c10.516,7.972,15.773,21.284,15.773,39.94c0,9.498-1.611,17.299-4.834,23.404
		c-3.223,6.106-7.547,10.939-12.975,14.501c-5.427,3.562-11.702,6.105-18.825,7.632s-14.586,2.29-22.387,2.29H248.807
		L248.807,419.567z"/>
</g>
</svg>
