<?xml version="1.0" encoding="utf-8"?>
<!-- Generator: Adobe Illustrator 15.1.0, SVG Export Plug-In . SVG Version: 6.00 Build 0)  -->
<!DOCTYPE svg PUBLIC "-//W3C//DTD SVG 1.1//EN" "http://www.w3.org/Graphics/SVG/1.1/DTD/svg11.dtd">
<svg version="1.1" id="Layer_1" xmlns="http://www.w3.org/2000/svg" xmlns:xlink="http://www.w3.org/1999/xlink" x="0px" y="0px"
	 width="500px" height="500px" viewBox="0 0 500 500" enable-background="new 0 0 500 500" xml:space="preserve">
<circle fill="#4DC8ED" cx="249.999" cy="249.587" r="43.925"/>
<path fill="none" stroke="#4DC8ED" stroke-width="24" stroke-miterlimit="10" d="M249.999,160.279
	c58.976,0,113.762,8.462,155.07,22.684c49.771,17.133,80.373,43.107,80.373,66.625c0,24.508-32.434,52.099-85.879,69.808
	c-40.408,13.388-93.582,20.377-149.564,20.377c-57.396,0-111.749-6.56-152.603-20.524c-51.7-17.671-82.839-45.621-82.839-69.66
	c0-23.328,29.217-49.099,78.289-66.208C134.31,168.925,190.449,160.279,249.999,160.279z"/>
<path fill="none" stroke="#4DC8ED" stroke-width="24" stroke-miterlimit="10" d="M172.255,205.19
	c29.462-51.086,64.163-94.319,97.119-123c39.706-34.554,77.492-48.088,97.866-36.34c21.23,12.244,28.932,54.123,17.57,109.268
	c-8.591,41.692-29.099,91.245-57.065,139.743c-28.675,49.721-61.509,93.529-94.017,121.944
	c-41.135,35.955-80.903,48.967-101.728,36.96c-20.208-11.655-27.937-49.84-18.242-100.895
	C121.949,309.729,142.504,256.778,172.255,205.19z"/>
<path fill="none" stroke="#4DC8ED" stroke-width="24" stroke-miterlimit="10" d="M172.329,294.99
	c-29.547-51.04-49.672-102.694-58.061-145.568c-10.108-51.659-2.961-91.156,17.393-102.938c21.21-12.28,61.338,1.965,103.439,39.348
	c31.833,28.264,64.522,70.779,92.569,119.23c28.758,49.673,50.311,99.998,58.695,142.354c10.608,53.596,2.021,94.546-18.783,106.591
	c-20.19,11.688-57.131-0.685-96.522-34.586C237.775,390.781,202.167,346.528,172.329,294.99z"/>
</svg>
