<?xml version="1.0" encoding="utf-8"?>
<!-- Generator: Adobe Illustrator 15.1.0, SVG Export Plug-In . SVG Version: 6.00 Build 0)  -->
<!DOCTYPE svg PUBLIC "-//W3C//DTD SVG 1.1//EN" "http://www.w3.org/Graphics/SVG/1.1/DTD/svg11.dtd">
<svg version="1.1" id="Layer_1" xmlns="http://www.w3.org/2000/svg" xmlns:xlink="http://www.w3.org/1999/xlink" x="0px" y="0px"
	 width="591.297px" height="476.761px" viewBox="0 0 591.297 476.761" enable-background="new 0 0 591.297 476.761"
	 xml:space="preserve">
<circle fill="#25274D" cx="110.576" cy="206.052" r="98.686"/>
<path fill="#25274D" d="M0,476.761h219.035c0,0,0-40.195,0-90.819c0-50.623-21.612-77.463-40.796-96.646
	c-20.156,20.155-44.506,25.391-67.663,25.391c-23.156,0-46.468-5.479-68.809-25.877C21.369,309.206,0,340.888,0,385.941
	C0,430.994,0,476.761,0,476.761z"/>
<circle fill="#25274D" cx="482.838" cy="205.798" r="98.686"/>
<path fill="#25274D" d="M372.263,476.507h219.034c0,0,0-40.195,0-90.82c0-50.623-21.612-77.463-40.796-96.646
	c-20.155,20.156-44.507,25.391-67.663,25.391s-46.468-5.479-68.809-25.877c-20.397,20.398-41.767,52.08-41.767,97.133
	S372.263,476.507,372.263,476.507z"/>
<path fill="#25274D" d="M419.891,83.647c0,46.198-56.175,83.647-125.471,83.647c-7.411,0-14.632-0.515-21.689-1.333
	c-17.846,19.246-52.997,22.245-52.997,22.245c6.1-11.227,10.086-22.06,11.424-32.408c-37.174-14.519-62.209-41.357-62.209-72.151
	C168.949,37.45,225.124,0,294.42,0C363.716,0,419.891,37.45,419.891,83.647z M261.558,83.647c0-9.9-8.023-17.925-17.924-17.925
	c-9.9,0-17.924,8.024-17.924,17.925c0,9.9,8.024,17.924,17.924,17.924C253.535,101.571,261.558,93.548,261.558,83.647z
	 M315.332,83.647c0-9.9-8.024-17.925-17.925-17.925s-17.925,8.024-17.925,17.925c0,9.901,8.025,17.924,17.925,17.924
	S315.332,93.548,315.332,83.647z M369.104,83.647c0-9.9-8.024-17.925-17.925-17.925c-9.897,0-17.922,8.024-17.922,17.925
	c0,9.9,8.021,17.924,17.922,17.924S369.104,93.548,369.104,83.647z"/>
</svg>
