<?xml version="1.0" encoding="utf-8"?>
<!-- Generator: Adobe Illustrator 15.1.0, SVG Export Plug-In . SVG Version: 6.00 Build 0)  -->
<!DOCTYPE svg PUBLIC "-//W3C//DTD SVG 1.1//EN" "http://www.w3.org/Graphics/SVG/1.1/DTD/svg11.dtd">
<svg version="1.1" id="Layer_1" xmlns="http://www.w3.org/2000/svg" xmlns:xlink="http://www.w3.org/1999/xlink" x="0px" y="0px"
	 width="500px" height="500px" viewBox="0 0 500 500" enable-background="new 0 0 500 500" xml:space="preserve">
<path id="logo" fill="#010101" d="M428.23,0H69.981C45.016,0,25.045,19.972,25.045,44.938v409.425
	c0,24.966,19.971,44.938,44.936,44.938H428.23c24.963,0,44.934-19.972,44.934-44.938V44.938C473.164,19.972,453.193,0,428.23,0z
	 M448.201,454.362c0,11.235-8.738,19.972-19.971,19.972H69.981c-11.233,0-19.972-8.736-19.972-19.972V44.938
	c0-11.234,8.738-19.972,19.972-19.972H428.23c11.232,0,19.971,8.738,19.971,19.972V454.362L448.201,454.362z M137.388,424.405
	l56.171-49.93l-56.171-49.931V424.405z M339.602,222.189c-9.984-9.986-28.707-22.469-59.914-22.469
	c-33.704,0-68.655,8.739-93.619,17.476v-142.3h-48.681v215.947l34.951-16.228c0,0,57.419-26.212,107.349-26.212
	c24.965,0,31.207,13.729,31.207,26.212v149.79h49.93v-149.79C360.824,270.87,360.824,243.41,339.602,222.189z M273.445,156.031
	h49.932c22.467-26.213,33.701-52.426,37.447-81.135h-49.93C305.9,103.605,293.418,129.818,273.445,156.031z"/>
</svg>
