<?xml version="1.0" encoding="utf-8"?>
<!-- Generator: Adobe Illustrator 15.1.0, SVG Export Plug-In . SVG Version: 6.00 Build 0)  -->
<!DOCTYPE svg PUBLIC "-//W3C//DTD SVG 1.1//EN" "http://www.w3.org/Graphics/SVG/1.1/DTD/svg11.dtd">
<svg version="1.1" id="Layer_1" xmlns="http://www.w3.org/2000/svg" xmlns:xlink="http://www.w3.org/1999/xlink" x="0px" y="0px"
	 width="500px" height="500px" viewBox="0 0 500 500" enable-background="new 0 0 500 500" xml:space="preserve">
<g>
	<g>
		<path fill="#0A69AD" d="M32.879,119.573c-44.999,63.149-40.413,146.062-7.353,214.068c0.808,1.619,1.618,3.241,2.428,4.855
			c0.541,1.014,1.012,2.095,1.552,3.108c0.27,0.606,0.606,1.146,1.011,1.753c0.471,1.08,1.08,2.089,1.687,3.169
			c1.011,1.892,2.09,3.775,3.172,5.601c0.537,1.007,1.146,2.022,1.752,3.037c1.215,1.958,2.428,3.914,3.643,5.864
			c0.541,0.883,1.081,1.687,1.621,2.502c1.688,2.63,3.44,5.258,5.327,7.894c0,0.065,0.136,0.132,0.136,0.197
			c0.27,0.408,0.609,0.812,0.879,1.213c1.618,2.227,3.238,4.454,4.854,6.615c0.676,0.811,1.216,1.555,1.823,2.359
			c1.485,1.896,2.968,3.779,4.519,5.671c0.541,0.674,1.15,1.418,1.756,2.089c2.022,2.496,4.114,4.929,6.341,7.354
			c0,0.065,0.066,0.065,0.066,0.137c0.069,0.133,0.204,0.204,0.204,0.271c2.092,2.293,4.25,4.586,6.409,6.879
			c0.674,0.67,1.419,1.414,2.09,2.094c1.688,1.753,3.375,3.439,5.131,5.127c0.74,0.671,1.415,1.344,2.09,2.022
			c2.294,2.228,4.587,4.387,7.018,6.542c0.066,0.065,0.066,0.065,0.136,0.137c0.4,0.337,0.806,0.673,1.145,1.009
			c2.092,1.892,4.25,3.715,6.407,5.536c0.809,0.744,1.687,1.415,2.632,2.159c1.757,1.417,3.509,2.834,5.33,4.25
			c0.877,0.743,1.822,1.483,2.769,2.227c1.955,1.482,4.045,2.899,6,4.381c0.746,0.542,1.417,1.082,2.092,1.621
			c0.205,0.131,0.407,0.271,0.609,0.408c1.888,1.346,3.845,2.629,5.802,3.914c0.875,0.539,1.687,1.146,2.497,1.686
			c2.968,1.952,6.002,3.841,9.104,5.734c0.812,0.474,1.622,0.948,2.497,1.48c2.227,1.35,4.52,2.63,6.816,3.914
			c1.282,0.679,2.563,1.351,3.709,2.025c1.688,0.878,3.237,1.75,4.925,2.633c0.339,0.197,0.742,0.336,1.147,0.54
			c0.609,0.335,1.281,0.671,1.956,1.007c2.564,1.287,5.131,2.499,7.693,3.709c0.54,0.278,1.08,0.54,1.685,0.745
			c2.969,1.354,6.006,2.629,9.042,3.914c0.744,0.335,1.484,0.604,2.227,0.875c2.833,1.148,5.734,2.229,8.501,3.31
			c0.402,0.13,0.742,0.269,1.077,0.407c3.172,1.146,6.342,2.222,9.514,3.236c0.741,0.204,1.482,0.467,2.293,0.671
			c3.237,1.015,6.411,2.229,9.784,2.907c213.793,41.56,277.951-125.556,277.951-125.556
			c-53.023,67.464-145.985,84.398-233.628,63.413c-3.305-0.805-6.542-1.884-9.781-2.899c-0.81-0.271-1.62-0.54-2.432-0.737
			c-3.103-1.016-6.272-2.096-9.375-3.176c-0.405-0.133-0.879-0.264-1.284-0.474c-2.765-1.009-5.532-2.089-8.299-3.163
			c-0.808-0.343-1.482-0.613-2.292-0.949c-3.035-1.212-6.006-2.498-8.904-3.847c-0.675-0.266-1.215-0.54-1.822-0.805
			c-2.562-1.219-5.059-2.366-7.556-3.65c-0.741-0.335-1.487-0.671-2.228-1.079c-1.957-1.009-3.914-2.089-5.871-3.098
			c-1.28-0.744-2.562-1.352-3.842-2.096c-2.362-1.277-4.655-2.627-7.017-3.979c-0.743-0.475-1.553-0.875-2.293-1.35
			c-3.104-1.818-6.142-3.775-9.176-5.667c-0.809-0.54-1.62-1.145-2.43-1.685c-2.159-1.418-4.317-2.901-6.477-4.383
			c-0.742-0.475-1.417-1.015-2.022-1.488c-2.092-1.483-4.115-3.031-6.141-4.521c-0.945-0.671-1.822-1.344-2.697-2.096
			c-1.892-1.476-3.71-2.964-5.467-4.446c-0.811-0.679-1.686-1.353-2.497-2.022c-2.293-1.963-4.585-3.914-6.882-5.942
			c-0.2-0.199-0.47-0.403-0.74-0.673c-2.427-2.228-4.79-4.453-7.217-6.679c-0.675-0.674-1.352-1.345-2.026-2.023
			c-1.753-1.687-3.507-3.438-5.125-5.198c-0.742-0.673-1.417-1.344-2.092-2.091c-2.092-2.219-4.25-4.519-6.342-6.812
			c-0.135-0.137-0.205-0.205-0.27-0.335c-2.227-2.432-4.319-4.928-6.411-7.491c-0.606-0.674-1.146-1.353-1.753-2.023
			c-1.484-1.956-3.037-3.913-4.589-5.87c-0.605-0.679-1.146-1.416-1.686-2.154c-1.887-2.431-3.644-4.795-5.331-7.286
			c-48.036-67.136-64.497-159.156-24.69-234.04"/>
		<path fill="#0A69AD" d="M171.048,67.492c-32.588,45.741-31.575,107.473-7.152,156.518c4.115,8.231,8.702,16.193,13.898,23.816
			c4.724,6.943,9.914,15.181,16.325,20.779c2.293,2.563,4.589,5.061,7.017,7.557c0.675,0.608,1.215,1.214,1.888,1.893
			c2.362,2.357,4.793,4.649,7.287,6.942c0.135,0.067,0.205,0.205,0.27,0.271c0.069,0,0.069,0.073,0.069,0.073
			c2.698,2.49,5.599,4.849,8.434,7.215c0.671,0.474,1.348,1.006,1.958,1.548c2.898,2.226,5.865,4.52,8.904,6.613
			c0.065,0.066,0.201,0.131,0.27,0.205c1.346,0.942,2.697,1.892,4.047,2.761c0.673,0.408,1.282,0.883,1.957,1.285
			c2.158,1.416,4.385,2.839,6.612,4.117c0.335,0.197,0.607,0.409,0.942,0.54c1.958,1.146,3.913,2.228,5.805,3.373
			c0.673,0.402,1.417,0.737,2.092,1.08c1.348,0.738,2.701,1.483,4.046,2.162c0.204,0.131,0.407,0.197,0.604,0.264
			c2.834,1.422,5.667,2.831,8.5,4.117c0.606,0.271,1.286,0.54,1.896,0.811c2.292,1.014,4.652,1.957,7.011,2.899
			c1.015,0.406,2.028,0.811,2.972,1.146c2.087,0.811,4.25,1.557,6.476,2.292c0.944,0.343,1.885,0.679,2.898,0.949
			c3.039,1.015,6.076,2.227,9.316,2.835c165.079,29.276,204.688-97.624,204.688-97.624
			c-35.018,49.185-101.875,72.053-172.853,52.756c-3.097-0.877-6.206-1.818-9.304-2.833c-0.947-0.27-1.897-0.607-2.832-0.942
			c-2.161-0.744-4.388-1.555-6.484-2.299c-1.014-0.403-1.948-0.738-2.898-1.147c-2.357-0.869-4.723-1.883-7.016-2.897
			c-0.607-0.271-1.284-0.541-1.891-0.804c-2.899-1.287-5.799-2.701-8.565-4.124c-1.488-0.674-2.897-1.478-4.389-2.222
			c-0.803-0.401-1.62-0.876-2.424-1.349c-1.891-1.015-3.65-2.098-5.468-3.106c-0.409-0.269-0.878-0.539-1.279-0.743
			c-2.226-1.344-4.453-2.701-6.614-4.112c-0.606-0.407-1.277-0.883-1.955-1.35c-1.484-0.941-2.9-1.956-4.25-2.904
			c-3.039-2.089-6.01-4.384-8.839-6.608c-0.675-0.542-1.348-1.081-2.022-1.621c-30.835-24.96-55.118-58.828-66.454-97.015
			c-11.875-39.668-8.704-83.926,13.086-119.681"/>
		<path fill="#0A69AD" d="M284.455,28.36c-18.891,27.796-20.716,62.273-7.617,92.969c13.822,32.585,42.093,58.156,75.147,70.297
			c1.355,0.471,2.701,0.945,4.124,1.417c0.605,0.205,1.211,0.405,1.752,0.605c1.95,0.61,3.914,1.352,5.931,1.688
			c91.353,17.677,116.113-46.887,122.653-56.331c-21.654,31.236-58.153,38.723-102.884,27.863c-3.51-0.876-7.424-2.092-10.796-3.308
			c-4.315-1.551-8.632-3.304-12.889-5.33c-7.959-3.774-15.508-8.433-22.532-13.763c-40.071-30.359-64.895-88.311-38.792-135.536"/>
	</g>
</g>
</svg>
