<?xml version="1.0" encoding="utf-8"?>
<!-- Generator: Adobe Illustrator 15.1.0, SVG Export Plug-In . SVG Version: 6.00 Build 0)  -->
<!DOCTYPE svg PUBLIC "-//W3C//DTD SVG 1.1//EN" "http://www.w3.org/Graphics/SVG/1.1/DTD/svg11.dtd">
<svg version="1.1" xmlns="http://www.w3.org/2000/svg" xmlns:xlink="http://www.w3.org/1999/xlink" x="0px" y="0px" width="500px"
	 height="500px" viewBox="0 0 500 500" enable-background="new 0 0 500 500" xml:space="preserve">
<g id="Layer_2">
	<path fill="#6082BC" d="M501,481c0,11.046-8.954,20-20,20H21c-11.046,0-20-8.954-20-20V21C1,9.954,9.954,1,21,1h460
		c11.046,0,20,8.954,20,20V481z"/>
</g>
<g id="Layer_1">
	<g>
		<g transform="translate(59.594 154.543)">
			<path fill="#FFFFFF" d="M30.631,40.917h56.347c16.54,0.142,28.524,4.944,35.953,14.409c7.429,9.465,9.881,22.392,7.359,38.779
				c-0.981,7.487-3.154,14.834-6.518,22.038c-3.224,7.205-7.709,13.703-13.456,19.495c-7.009,7.346-14.507,12.008-22.497,13.986
				c-7.989,1.978-16.259,2.967-24.809,2.967H37.78l-7.99,40.262H0.565L30.631,40.917L30.631,40.917 M55.23,65.075l-12.615,63.572
				c0.841,0.141,1.682,0.211,2.523,0.211h2.944c13.456,0.142,24.669-1.2,33.64-4.025c8.971-2.967,14.998-13.279,18.082-30.938
				c2.523-14.833,0-23.38-7.569-25.641c-7.429-2.26-16.75-3.32-27.963-3.178c-1.682,0.141-3.294,0.212-4.835,0.212
				c-1.402,0-2.874,0-4.416,0L55.23,65.075 M163.58,0.443h29.015l-8.2,40.474h26.071c14.297,0.283,24.949,3.249,31.958,8.9
				c7.148,5.651,9.251,16.387,6.308,32.209l-14.087,70.565h-29.436l13.457-67.386c1.4-7.063,0.98-12.079-1.262-15.045
				c-2.243-2.967-7.078-4.45-14.508-4.45l-23.337-0.212l-17.241,87.094h-29.014L163.58,0.443L163.58,0.443 M279.887,40.917h56.347
				c16.54,0.142,28.523,4.944,35.953,14.409c7.429,9.465,9.881,22.392,7.358,38.779c-0.981,7.487-3.154,14.834-6.518,22.038
				c-3.225,7.205-7.71,13.703-13.456,19.495c-7.009,7.346-14.508,12.008-22.497,13.986c-7.989,1.978-16.259,2.967-24.81,2.967
				h-25.229l-7.989,40.262h-29.225L279.887,40.917L279.887,40.917 M304.487,65.075l-12.615,63.572
				c0.841,0.141,1.682,0.211,2.522,0.211h2.943c13.456,0.142,24.67-1.2,33.641-4.025c8.971-2.967,14.997-13.279,18.081-30.938
				c2.523-14.833,0-23.38-7.569-25.641c-7.429-2.26-16.749-3.32-27.963-3.178c-1.682,0.141-3.294,0.212-4.836,0.212
				c-1.401,0-2.873,0-4.415,0L304.487,65.075"/>
		</g>
	</g>
</g>
</svg>
