<?xml version="1.0" encoding="utf-8"?>
<!-- Generator: Adobe Illustrator 15.1.0, SVG Export Plug-In . SVG Version: 6.00 Build 0)  -->
<!DOCTYPE svg PUBLIC "-//W3C//DTD SVG 1.1//EN" "http://www.w3.org/Graphics/SVG/1.1/DTD/svg11.dtd">
<svg version="1.1" id="Layer_1" xmlns="http://www.w3.org/2000/svg" xmlns:xlink="http://www.w3.org/1999/xlink" x="0px" y="0px"
	 width="500px" height="500px" viewBox="0 0 500 500" enable-background="new 0 0 500 500" xml:space="preserve">
<path fill="#D3DE25" d="M250.09,0.221c-110.452,0-199.912,89.462-199.912,199.912h99.955c0-55.174,44.782-99.955,99.957-99.955
	V0.221z"/>
<path fill="#63BE71" d="M450,200.133C450,89.683,360.538,0.221,250.09,0.221v99.957c55.174,0,99.953,44.781,99.953,99.955H450z"/>
<path fill="#25B8EB" d="M250.09,400.045c110.448,0,199.91-89.461,199.91-199.912h-99.957c0,55.176-44.779,99.955-99.953,99.955
	V400.045z"/>
<path fill="#FFFFFF" d="M150.133,400.045V200.133H50.178V500H250.09v-99.955H150.133z"/>
</svg>
