<?xml version="1.0" encoding="utf-8"?>
<!-- Generator: Adobe Illustrator 15.1.0, SVG Export Plug-In . SVG Version: 6.00 Build 0)  -->
<!DOCTYPE svg PUBLIC "-//W3C//DTD SVG 1.1//EN" "http://www.w3.org/Graphics/SVG/1.1/DTD/svg11.dtd">
<svg version="1.1" id="Layer_1" xmlns="http://www.w3.org/2000/svg" xmlns:xlink="http://www.w3.org/1999/xlink" x="0px" y="0px"
	 width="500px" height="500px" viewBox="0 0 500 500" enable-background="new 0 0 500 500" xml:space="preserve">
<path fill="#37BDB3" d="M0.154,0.155h499.691v499.69H0.154V0.155z"/>
<path fill="#FFFFFF" d="M328.977,170.051c-26.383-15.306-49.802-27.344-80.44-26.814c-17.528,0.305-32.577,9.833-35.74,27.269
	c-2.947,16.222,11.474,25.22,26.478,30.744c24.879,9.163,46.542,18.836,70.989,29.023c44.442,18.521,67.231,48.516,64.54,87.003
	c-3.43,48.968-32.899,84.089-79.735,95.666c-61.201,15.131-120.631-7.916-170.844-40.092c12.673-19.306,27.379-32.486,39.975-51.675
	c29.011,12.347,51.802,29.033,82.149,31.636c21.399,1.833,45.645,0.813,50.451-24.321c4.333-22.668-15.392-34.816-34.631-41.604
	c-22.907-8.08-45.771-17.963-68.232-27.138c-41.523-16.959-58.418-50.132-55.575-89.21c0-22.914,19.011-69.228,65.626-83.632
	c71.62-22.133,111.079,0.533,163.015,33.907C353.208,139.057,342.602,152.027,328.977,170.051"/>
</svg>
