<?xml version="1.0" encoding="utf-8"?>
<!-- Generator: Adobe Illustrator 15.1.0, SVG Export Plug-In . SVG Version: 6.00 Build 0)  -->
<!DOCTYPE svg PUBLIC "-//W3C//DTD SVG 1.1//EN" "http://www.w3.org/Graphics/SVG/1.1/DTD/svg11.dtd">
<svg version="1.1" id="Layer_1" xmlns="http://www.w3.org/2000/svg" xmlns:xlink="http://www.w3.org/1999/xlink" x="0px" y="0px"
	 width="700px" height="442.16px" viewBox="0 0 700 442.16" enable-background="new 0 0 700 442.16" xml:space="preserve">
<circle fill="#25274D" cx="351.438" cy="147.323" r="107.482"/>
<path fill="#25274D" d="M231.007,442.16h238.558c0,0,0-43.778,0-98.914s-23.538-84.366-44.432-105.261
	c-21.952,21.95-48.474,27.652-73.694,27.652s-50.61-5.966-74.942-28.182c-22.216,22.216-45.49,56.722-45.49,105.79
	C231.007,392.315,231.007,442.16,231.007,442.16z"/>
<circle fill="#25274D" cx="574.509" cy="107.484" r="107.482"/>
<circle fill="#25274D" cx="128.431" cy="107.484" r="107.482"/>
<path fill="#25274D" d="M8,402.321h210.558l2-80.914c0-14.322,8.465-49.357,28.535-69.745
	c-21.207-42.112-29.544-41.623-46.966-53.516c-18.958,18.958-48.474,27.652-73.694,27.652s-50.61-5.966-74.942-28.182
	C31.274,219.833,8,254.339,8,303.407C8,352.477,8,402.321,8,402.321z"/>
<path fill="#25274D" d="M693.902,402.321H483.344l-2-80.914c0-14.322-8.465-49.357-28.533-69.746
	c21.205-42.111,29.543-41.623,46.965-53.516c18.959,18.959,48.475,27.652,73.695,27.652s50.61-5.965,74.942-28.182
	c22.216,22.217,45.489,53.284,45.489,102.353S693.902,402.321,693.902,402.321z"/>
</svg>
