<?xml version="1.0" encoding="utf-8"?>
<!-- Generator: Adobe Illustrator 15.1.0, SVG Export Plug-In . SVG Version: 6.00 Build 0)  -->
<!DOCTYPE svg PUBLIC "-//W3C//DTD SVG 1.1//EN" "http://www.w3.org/Graphics/SVG/1.1/DTD/svg11.dtd">
<svg version="1.1" id="Layer_1" xmlns="http://www.w3.org/2000/svg" xmlns:xlink="http://www.w3.org/1999/xlink" x="0px" y="0px"
	 width="500px" height="500px" viewBox="0 0 500 500" enable-background="new 0 0 500 500" xml:space="preserve">
<path fill="#68A063" d="M250.51,500c-6.679,0-13.316-1.753-19.172-5.124l-61.03-36.13c-9.114-5.099-4.667-6.9-1.66-7.94
	c12.154-4.257,14.62-5.218,27.593-12.584c1.365-0.778,3.147-0.503,4.543,0.32l46.886,27.823c1.693,0.913,4.097,0.913,5.664,0
	l182.81-105.523c1.696-0.959,2.789-2.931,2.789-4.94V144.948c0-2.105-1.093-3.981-2.822-5.033L253.371,34.485
	c-1.693-1.009-3.935-1.009-5.63,0L65.042,139.915c-1.771,1.004-2.897,2.976-2.897,4.987v210.953c0,2.014,1.099,3.934,2.837,4.896
	l50.062,28.921c27.181,13.59,43.791-2.427,43.791-18.535V162.933c0-2.976,2.335-5.263,5.309-5.263h23.154
	c2.882,0,5.261,2.287,5.261,5.263v208.296c0,36.241-19.767,57.061-54.132,57.061c-10.571,0-18.9,0-42.146-11.438l-47.956-27.64
	c-11.853-6.865-19.174-19.677-19.174-33.357V144.902c0-13.729,7.321-26.542,19.174-33.312L231.319,6.023
	c11.578-6.545,26.954-6.545,38.441,0l182.759,105.611c11.81,6.82,19.178,19.586,19.178,33.314v210.953
	c0,13.68-7.368,26.445-19.178,33.311L269.76,494.782c-5.859,3.385-12.494,5.123-19.269,5.123"/>
<path fill="#68A063" d="M306.974,354.64c-79.983,0-96.754-36.715-96.754-67.513c0-2.93,2.36-5.262,5.293-5.262h23.613
	c2.607,0,4.804,1.9,5.216,4.475c3.568,24.061,14.186,36.197,62.553,36.197c38.528,0,54.911-8.704,54.911-29.136
	c0-11.76-4.665-20.502-64.521-26.356c-50.061-4.943-80.994-15.971-80.994-56.012c0-36.88,31.115-58.845,83.235-58.845
	c58.525,0,87.535,20.316,91.203,63.971c0.132,1.511-0.416,2.975-1.422,4.072c-1.005,1.052-2.427,1.696-3.887,1.696h-23.75
	c-2.474,0-4.625-1.741-5.128-4.12c-5.718-25.308-19.539-33.405-57.107-33.405c-42.054,0-46.949,14.643-46.949,25.626
	c0,13.316,5.766,17.203,62.504,24.708c56.199,7.459,82.877,17.983,82.877,57.475c0,39.811-33.228,62.645-91.155,62.645"/>
</svg>
