<?xml version="1.0" encoding="utf-8"?>
<!-- Generator: Adobe Illustrator 15.1.0, SVG Export Plug-In . SVG Version: 6.00 Build 0)  -->
<!DOCTYPE svg PUBLIC "-//W3C//DTD SVG 1.1//EN" "http://www.w3.org/Graphics/SVG/1.1/DTD/svg11.dtd">
<svg version="1.1" id="Layer_1" xmlns="http://www.w3.org/2000/svg" xmlns:xlink="http://www.w3.org/1999/xlink" x="0px" y="0px"
	 width="500px" height="500px" viewBox="0 0 500 500" enable-background="new 0 0 500 500" xml:space="preserve">
<g>
	<rect fill="#58AA50" width="500" height="500"/>
	<g transform="translate(173 75)">
		<path fill="#FFFFFF" d="M86.226,350l-9.313-3.181c0,0,1.137-47.437-15.903-50.841c-11.356-13.166,1.822-558.368,42.712-1.817
			c0,0-14.087,7.034-16.585,19.067C84.408,325.032,86.226,350,86.226,350L86.226,350z"/>
		<path fill="#FFFFFF" d="M86.226,350l-9.313-3.181c0,0,1.137-47.437-15.903-50.841c-11.356-13.166,1.822-558.368,42.712-1.817
			c0,0-14.087,7.034-16.585,19.067C84.408,325.032,86.226,350,86.226,350L86.226,350z"/>
		<path fill="#FFFFFF" d="M89.987,303.331c0,0,81.117-53.458,62.134-164.677C133.821,57.793,90.666,31.292,85.92,21.098
			C80.725,13.85,75.752,1.167,75.752,1.167l3.391,224.921c0,0.229-7.004,68.861,10.848,77.246"/>
		<path fill="#FFFFFF" d="M89.987,303.331c0,0,81.117-53.458,62.134-164.677C133.821,57.793,90.666,31.292,85.92,21.098
			C80.725,13.85,75.752,1.167,75.752,1.167l3.391,224.921c0,0.229-7.004,68.861,10.848,77.246"/>
		<path fill="#FFFFFF" d="M71.252,306.834c0,0-75.544-52.238-71.061-144.218C4.45,70.634,57.8,25.438,68.112,17.262
			C74.838,9.995,75.062,7.268,75.511,0c4.708,10.221,3.812,152.851,4.481,169.655C82.008,234.383,76.407,294.572,71.252,306.834z"/>
		<path fill="#FFFFFF" d="M71.252,306.834c0,0-75.544-52.238-71.061-144.218C4.45,70.634,57.8,25.438,68.112,17.262
			C74.838,9.995,75.062,7.268,75.511,0c4.708,10.221,3.812,152.851,4.481,169.655C82.008,234.383,76.407,294.572,71.252,306.834z"/>
	</g>
</g>
</svg>
