<?xml version="1.0" encoding="utf-8"?>
<!-- Generator: Adobe Illustrator 15.1.0, SVG Export Plug-In . SVG Version: 6.00 Build 0)  -->
<!DOCTYPE svg PUBLIC "-//W3C//DTD SVG 1.1//EN" "http://www.w3.org/Graphics/SVG/1.1/DTD/svg11.dtd">
<svg version="1.1" id="Layer_1" xmlns="http://www.w3.org/2000/svg" xmlns:xlink="http://www.w3.org/1999/xlink" x="0px" y="0px"
	 width="500px" height="500px" viewBox="0 0 500 500" enable-background="new 0 0 500 500" xml:space="preserve">
<g id="General-Symbols">
	<g id="JS" transform="translate(-777.000000, -651.000000)">
		<g id="Unofficial_JavaScript_logo_2" transform="translate(777.000000, 651.000000)">
			<g id="Group">
				<path id="Combined-Shape" fill="#FFDE17" d="M-2.5-2.5h506v506h-506V-2.5z M337.403,392.814l-38.641,22.449
					c13.959,27.581,42.488,48.624,86.646,48.624c45.162,0,78.791-23.453,78.791-66.262c0-39.71-22.81-57.371-63.209-74.696
					l-11.888-5.092c-20.4-8.834-29.235-14.609-29.235-28.874c0-11.542,8.827-20.376,22.754-20.376
					c13.654,0,22.449,5.758,30.602,20.376l37.026-23.774c-15.662-27.548-37.396-38.07-67.628-38.07
					c-42.464,0-69.635,27.148-69.635,62.808c0,38.713,22.794,57.025,57.105,71.643l11.887,5.102
					c21.686,9.484,34.617,15.26,34.617,31.564c0,13.605-12.586,23.452-32.288,23.452
					C360.856,421.688,347.596,409.456,337.403,392.814z M169.436,396.935l-38.705,23.433c11.212,23.73,33.26,43.432,71.33,43.432
					c42.135,0,71-22.408,71-71.643V229.834h-47.547v161.679c0,23.766-9.855,29.878-25.477,29.878
					C183.7,421.392,176.905,410.188,169.436,396.935z"/>
			</g>
		</g>
	</g>
</g>
</svg>
