<?xml version="1.0" encoding="utf-8"?>
<!-- Generator: Adobe Illustrator 15.1.0, SVG Export Plug-In . SVG Version: 6.00 Build 0)  -->
<!DOCTYPE svg PUBLIC "-//W3C//DTD SVG 1.1//EN" "http://www.w3.org/Graphics/SVG/1.1/DTD/svg11.dtd">
<svg version="1.1" id="Layer_1" xmlns="http://www.w3.org/2000/svg" xmlns:xlink="http://www.w3.org/1999/xlink" x="0px" y="0px"
	 width="1024px" height="1024px" viewBox="0 0 1024 1024" enable-background="new 0 0 1024 1024" xml:space="preserve">
<path fill="#FFFFFF" d="M159.183,857.561h153.79V395.526h-153.79V857.561z M322.959,253.054
	c-0.445-23.079-8.433-42.165-23.968-57.254c-15.534-15.091-36.172-22.636-61.915-22.636c-25.743,0-46.714,7.545-62.914,22.636
	c-16.2,15.09-24.3,34.175-24.3,57.254c0,22.636,7.878,41.61,23.635,56.922c15.756,15.313,36.284,22.969,61.583,22.969h0.666
	c26.186,0,47.269-7.656,63.247-22.969C314.97,294.664,322.959,275.69,322.959,253.054z M712.426,857.561h153.79V592.59
	c0-68.352-16.199-120.058-48.6-155.122c-32.401-35.063-75.23-52.594-128.491-52.594c-60.362,0-106.742,25.964-139.144,77.894h1.331
	v-67.242H397.523c1.332,29.293,1.332,183.304,0,462.035h153.791V599.248c0-16.866,1.553-29.294,4.658-37.283
	c6.659-15.534,16.646-28.738,29.96-39.612c13.315-10.874,29.737-16.312,49.267-16.312c51.484,0,77.228,34.842,77.228,104.523
	L712.426,857.561L712.426,857.561z M1024,193.136v639.126c0,52.817-18.752,97.979-56.257,135.481
	C930.24,1005.248,885.079,1024,832.263,1024H193.136c-52.816,0-97.977-18.752-135.481-56.257
	C20.151,930.24,1.398,885.079,1.398,832.262V193.136c0-52.816,18.752-97.977,56.257-135.48
	C95.159,20.149,140.32,1.398,193.136,1.398h639.125c52.816,0,97.979,18.751,135.48,56.256
	C1005.248,95.159,1024,140.319,1024,193.136z"/>
</svg>
