<?xml version="1.0" encoding="utf-8"?>
<!-- Generator: Adobe Illustrator 15.1.0, SVG Export Plug-In . SVG Version: 6.00 Build 0)  -->
<!DOCTYPE svg PUBLIC "-//W3C//DTD SVG 1.1//EN" "http://www.w3.org/Graphics/SVG/1.1/DTD/svg11.dtd">
<svg version="1.1" id="Layer_1" xmlns="http://www.w3.org/2000/svg" xmlns:xlink="http://www.w3.org/1999/xlink" x="0px" y="0px"
	 width="500px" height="500px" viewBox="0 0 500 500" enable-background="new 0 0 500 500" xml:space="preserve">
<g>
	<path fill="none" stroke="#FFFFFF" stroke-width="20" stroke-linecap="round" stroke-linejoin="round" stroke-miterlimit="10" d="
		M261.994,478.282c136.971-8.371,239.319-128.644,226.519-256.64C476.012,96.674,359.457,6.072,236.025,14.458
		C110.89,22.958,7.833,131.44,13.603,257.32C23.78,454.021,213.906,481.734,222.142,479.068"/>
	<path fill="none" stroke="#FFFFFF" stroke-width="20" stroke-linecap="round" stroke-linejoin="round" stroke-miterlimit="10" d="
		M253.578,239.371c35.354-67.568,104.49-53.426,133.167-16.105c28.678,37.32,12.769,108.803-21.997,112.742"/>
	<path fill="none" stroke="#FFFFFF" stroke-width="20" stroke-linecap="round" stroke-linejoin="round" stroke-miterlimit="10" d="
		M253.578,239.371c-38.523-65.812,12.969-118.485,59.816-122.999c57.657-5.552,102.027,48.165,88.76,76.816"/>
	<path fill="none" stroke="#FFFFFF" stroke-width="20" stroke-linecap="round" stroke-linejoin="round" stroke-miterlimit="10" d="
		M253.578,239.371c-73.811-2.184-96.659-64.878-77.207-114.964c21.033-54.148,99.991-57.096,120.737-29.031"/>
	<path fill="none" stroke="#FFFFFF" stroke-width="20" stroke-linecap="round" stroke-linejoin="round" stroke-miterlimit="10" d="
		M253.578,239.371c-42.348,63.418-117.621,50.619-142.162,10.457c-24.541-40.16-11.237-106.504,36.259-112.615"/>
	<path fill="none" stroke="#FFFFFF" stroke-width="20" stroke-linecap="round" stroke-linejoin="round" stroke-miterlimit="10" d="
		M253.578,239.371c31.295,69.541-24.198,126.057-71.261,126.059c-44.427,0.002-92.745-33.546-77.985-83.235"/>
	<path fill="none" stroke="#FFFFFF" stroke-width="20" stroke-linecap="round" stroke-linejoin="round" stroke-miterlimit="10" d="
		M253.578,239.371c75.549,10.359,101.659,81.297,76.272,120.925c-25.39,39.626-93.559,56.241-116.641,24.31"/>
</g>
</svg>
