<?xml version="1.0" encoding="utf-8"?>
<!-- Generator: Adobe Illustrator 15.1.0, SVG Export Plug-In . SVG Version: 6.00 Build 0)  -->
<!DOCTYPE svg PUBLIC "-//W3C//DTD SVG 1.1//EN" "http://www.w3.org/Graphics/SVG/1.1/DTD/svg11.dtd">
<svg version="1.1" id="Layer_1" xmlns="http://www.w3.org/2000/svg" xmlns:xlink="http://www.w3.org/1999/xlink" x="0px" y="0px"
	 width="500px" height="500px" viewBox="0 0 500 500" enable-background="new 0 0 500 500" xml:space="preserve">
<path fill="#FFFFFF" d="M250.237,5.253C112.045,5.253,0,117.297,0,255.49c0,110.578,71.693,204.355,171.137,237.438
	c12.509,2.292,17.075-5.438,17.075-12.034c0-5.956-0.229-25.69-0.351-46.584c-69.586,15.119-84.293-29.508-84.293-29.508
	c-11.394-28.899-27.783-36.595-27.783-36.595c-22.742-15.52,1.725-15.213,1.725-15.213c25.125,1.738,38.352,25.781,38.352,25.781
	c22.33,38.244,58.588,27.186,72.824,20.771c2.274-16.128,8.75-27.187,15.884-33.417c-55.549-6.322-113.984-27.797-113.984-123.682
	c0-27.341,9.759-49.639,25.735-67.158c-2.551-6.354-11.165-31.814,2.474-66.255c0,0,20.985-6.719,68.821,25.659
	c19.946-5.574,41.344-8.323,62.62-8.416c21.262,0.093,42.674,2.873,62.65,8.447c47.744-32.409,68.763-25.659,68.763-25.659
	c13.684,34.471,5.071,59.901,2.504,66.225c16.036,17.519,25.721,39.817,25.721,67.158c0,96.128-58.527,117.299-114.273,123.499
	c9.01,7.759,16.982,22.973,16.982,46.31c0,33.448-0.334,60.421-0.334,68.669c0,6.659,4.551,14.449,17.227,12.004
	c99.369-33.144,171-126.92,171-237.438C500.475,117.297,388.43,5.253,250.237,5.253z"/>
</svg>
