<?xml version="1.0" encoding="utf-8"?>
<!-- Generator: Adobe Illustrator 15.1.0, SVG Export Plug-In . SVG Version: 6.00 Build 0)  -->
<!DOCTYPE svg PUBLIC "-//W3C//DTD SVG 1.1//EN" "http://www.w3.org/Graphics/SVG/1.1/DTD/svg11.dtd">
<svg version="1.1" id="Layer_1" xmlns="http://www.w3.org/2000/svg" xmlns:xlink="http://www.w3.org/1999/xlink" x="0px" y="0px"
	 width="500px" height="500px" viewBox="0 0 500 500" enable-background="new 0 0 500 500" xml:space="preserve">
<g>
	<path fill="#FFFFFF" d="M250.501,0.5C112.427,0.5,0.5,112.427,0.5,250.501C0.5,388.577,112.427,500.5,250.501,500.5
		c138.072,0,249.999-111.923,249.999-249.999C500.5,112.427,388.573,0.5,250.501,0.5z M250.501,459.443
		c-115.212,0-208.941-93.733-208.941-208.942c0-115.208,93.729-208.941,208.941-208.941c115.208,0,208.938,93.733,208.938,208.941
		C459.439,365.71,365.71,459.443,250.501,459.443z"/>
	<path fill="#FFFFFF" d="M404.962,201.672c-0.028-0.195-0.076-0.382-0.109-0.577c-0.063-0.374-0.135-0.748-0.23-1.114
		c-0.057-0.22-0.138-0.431-0.206-0.642c-0.106-0.326-0.212-0.651-0.342-0.968c-0.091-0.22-0.196-0.439-0.297-0.651
		c-0.142-0.3-0.285-0.593-0.452-0.877c-0.122-0.212-0.251-0.416-0.377-0.618c-0.182-0.277-0.362-0.546-0.563-0.806
		c-0.146-0.194-0.3-0.39-0.454-0.577c-0.212-0.243-0.432-0.487-0.664-0.716c-0.174-0.178-0.346-0.357-0.526-0.521
		c-0.244-0.219-0.496-0.431-0.752-0.633c-0.198-0.155-0.396-0.31-0.604-0.456c-0.078-0.049-0.146-0.114-0.22-0.163L257.869,98.156
		c-4.465-2.976-10.274-2.976-14.738,0l-141.295,94.196c-0.073,0.049-0.142,0.114-0.219,0.163c-0.208,0.146-0.403,0.301-0.598,0.456
		c-0.26,0.203-0.512,0.415-0.752,0.633c-0.187,0.164-0.357,0.342-0.533,0.521c-0.231,0.229-0.451,0.473-0.658,0.716
		c-0.159,0.188-0.313,0.383-0.459,0.577c-0.195,0.26-0.383,0.529-0.557,0.806c-0.134,0.203-0.26,0.406-0.382,0.618
		c-0.163,0.284-0.309,0.577-0.451,0.877c-0.102,0.211-0.208,0.431-0.297,0.651c-0.13,0.317-0.236,0.642-0.341,0.968
		c-0.07,0.211-0.146,0.422-0.208,0.642c-0.097,0.366-0.162,0.74-0.231,1.114c-0.032,0.195-0.081,0.382-0.106,0.577
		c-0.077,0.569-0.122,1.146-0.122,1.732V297.6c0,0.586,0.044,1.162,0.122,1.74c0.025,0.188,0.074,0.383,0.106,0.568
		c0.069,0.373,0.134,0.748,0.231,1.113c0.062,0.221,0.138,0.433,0.208,0.644c0.105,0.323,0.211,0.649,0.341,0.976
		c0.089,0.221,0.195,0.433,0.297,0.646c0.143,0.3,0.289,0.592,0.451,0.885c0.122,0.204,0.248,0.406,0.382,0.609
		c0.174,0.276,0.362,0.546,0.557,0.807c0.146,0.203,0.301,0.392,0.459,0.577c0.208,0.243,0.427,0.486,0.658,0.716
		c0.175,0.179,0.346,0.356,0.533,0.521c0.24,0.222,0.492,0.433,0.752,0.636c0.195,0.155,0.391,0.31,0.598,0.454
		c0.077,0.05,0.146,0.115,0.219,0.162l141.295,94.196c2.231,1.487,4.802,2.236,7.371,2.236c2.566,0,5.135-0.749,7.368-2.236
		l141.295-94.196c0.074-0.047,0.142-0.112,0.22-0.162c0.207-0.146,0.403-0.299,0.604-0.454c0.256-0.203,0.508-0.414,0.752-0.636
		c0.183-0.162,0.354-0.342,0.526-0.521c0.232-0.229,0.452-0.473,0.664-0.716c0.154-0.188,0.31-0.374,0.454-0.577
		c0.2-0.261,0.383-0.528,0.563-0.807c0.126-0.203,0.255-0.405,0.377-0.609c0.167-0.293,0.312-0.585,0.452-0.885
		c0.101-0.213,0.206-0.425,0.297-0.646c0.13-0.324,0.233-0.649,0.342-0.976c0.068-0.211,0.149-0.423,0.206-0.644
		c0.098-0.365,0.167-0.74,0.231-1.113c0.032-0.188,0.08-0.381,0.108-0.568c0.073-0.578,0.119-1.154,0.119-1.74v-94.197
		C405.081,202.818,405.035,202.241,404.962,201.672z M263.786,134.033l104.088,69.387l-46.493,31.103l-57.595-38.527V134.033z
		 M237.215,134.033v61.963l-57.592,38.527l-46.497-31.103L237.215,134.033z M122.49,228.271l33.238,22.231l-33.238,22.232V228.271z
		 M237.215,366.971l-104.088-69.388l46.497-31.094l57.592,38.52L237.215,366.971L237.215,366.971z M250.501,281.932l-46.988-31.43
		l46.988-31.428l46.985,31.428L250.501,281.932z M263.786,366.971v-61.962l57.595-38.52l46.493,31.094L263.786,366.971z
		 M378.51,272.734l-33.231-22.233l33.231-22.231V272.734z"/>
</g>
</svg>
